HIERARCHY
ROOT pelvis
{
  OFFSET 0 100 0
  CHANNELS 6 Xposition Yposition Zposition Zrotation Xrotation Yrotation
  JOINT pelvis_right_femur
  {
    OFFSET -10.78128 -3.44521 -0.5502486
    CHANNELS 3 Zrotation Xrotation Yrotation
    JOINT right_femur_tibia
    {
      OFFSET -0.8047443 -44.0398 -0.1307829
      CHANNELS 3 Zrotation Xrotation Yrotation
      JOINT right_tibia_foot
      {
        OFFSET 3.006224 -47.83518 -5
        CHANNELS 3 Zrotation Xrotation Yrotation
        End Site
        {
          OFFSET 0 -5 15
        }
      }
    }
  }
  JOINT pelvis_left_femur
  {
    OFFSET 10.78128 -3.44521 -0.5502486
    CHANNELS 3 Zrotation Xrotation Yrotation
    JOINT left_femur_tibia
    {
      OFFSET 0.8047443 -44.0398 -0.1307829
      CHANNELS 3 Zrotation Xrotation Yrotation
      JOINT left_tibia_foot
      {
        OFFSET -4.370144 -48.10324 -4.275266
        CHANNELS 3 Zrotation Xrotation Yrotation
        End Site
        {
          OFFSET 0 -5 15
        }
      }
    }
  }
  JOINT pelvis_spine1
  {
    OFFSET 0 6.468898 -3.129235
    CHANNELS 3 Zrotation Xrotation Yrotation
    JOINT spine1
    {
      OFFSET 0 23.15396 4.99043
      CHANNELS 3 Zrotation Xrotation Yrotation
      JOINT spine2
      {
        OFFSET 0 20.79997 -5.064912
        CHANNELS 3 Zrotation Xrotation Yrotation
        JOINT neck
        {
          OFFSET 0 14.38658 9.616178
          CHANNELS 3 Zrotation Xrotation Yrotation
          End Site
          {
            OFFSET 0 20 0
          }
        }
      }
      JOINT right_manubrium
      {
        OFFSET -5.722621 16.35077 3.967754
        CHANNELS 3 Zrotation Xrotation Yrotation
        JOINT right_clavicle
        {
          OFFSET -13.16364 1.694482 -4.693211
          CHANNELS 3 Zrotation Xrotation Yrotation
          JOINT right_humerus
          {
            OFFSET -28.5034 -0.3100689 -2.792744
            CHANNELS 3 Zrotation Xrotation Yrotation
            JOINT right_radius
            {
              OFFSET -25.15693 0.02248979 -1.271978
              CHANNELS 3 Zrotation Xrotation Yrotation
              End Site
              {
                OFFSET -15 0 0
              }
            }
          }
        }
      }
      JOINT left_manubrium
      {
        OFFSET 5.722621 16.35077 3.967754
        CHANNELS 3 Zrotation Xrotation Yrotation
        JOINT left_clavicle
        {
          OFFSET 13.16364 1.694482 -4.693211
          CHANNELS 3 Zrotation Xrotation Yrotation
          JOINT left_humerus
          {
            OFFSET 29.39168 -1.063119 -2.237045
            CHANNELS 3 Zrotation Xrotation Yrotation
            JOINT left_radius
            {
              OFFSET 24.59957 -0.9528479 0.9047498
              CHANNELS 3 Zrotation Xrotation Yrotation
              End Site
              {
                OFFSET 15 -0 -0
              }
            }
          }
        }
      }
    }
  }
}
MOTION
Frames: 11
Frame Time: 0.0416666666667
1312.43 104.5844 2546.373 7.071944 -3.702048 52.84451 0.2840009 -1.701568 2.51459 -0 54.91933 -0 -6.04125 11.31689 -2.789972 -5.917495 -0.07351873 -8.993582 -0 16.18582 -0 -1.045191 -14.05296 17.45275 -3.22894 -0.4138505 3.966721 -0.3392892 12.27427 -6.000969 0.970022 22.30302 6.248958 3.210976 -20.66173 6.344508 1.268202 -20.12703 11.17406 89.68024 24.22731 -14.74415 -0 0 14.57924 -21.85393 7.632411 13.32669 4.019375 -19.86029 -4.878247 -90.09476 24.21979 20.5399 0 0 -12.91781 0.8613703 6.479065 14.06201
1316.939 105.4198 2549.07 6.271322 -3.747847 53.87193 0.9667913 -9.762936 2.215812 -0 51.0698 -0 -6.192685 9.219231 -3.505096 -5.607666 4.522381 -9.399085 -0 13.05411 -0 -1.303036 -16.133 16.61361 -2.580991 -0.1467696 3.340645 0.08052411 12.21864 -7.029555 0.7158861 22.13456 6.698881 3.359005 -20.72685 6.492914 1.461912 -19.7808 11.33434 90.62638 24.64088 -17.19614 -0 0 13.77076 -20.93149 8.177923 12.24903 4.623376 -21.4954 -5.371908 -88.80159 24.91988 18.23879 0 0 -16.78459 1.124828 7.322854 13.90075
1321.195 105.6308 2551.652 5.239606 -3.547164 54.72172 1.416278 -16.94439 1.912308 -0 43.97564 -0 -6.040829 6.216037 -4.114831 -5.256141 8.355029 -9.845568 -0 10.7954 -0 -2.010885 -18.10019 15.70773 -1.979502 0.05435474 2.976391 0.4598745 11.73711 -7.776373 0.7410202 21.9818 6.961954 3.395198 -20.75562 6.869837 1.439607 -19.17107 11.18387 91.22457 24.95078 -19.25403 -0 0 13.12371 -19.9871 8.829147 11.07356 5.376282 -22.69314 -5.515005 -87.56644 25.55378 15.76783 0 0 -20.21519 1.627758 8.381882 13.37464
1325.41 105.2187 2554.303 4.379039 -3.148189 55.41454 1.46575 -22.37147 1.341147 -0 34.94753 -0 -5.672013 3.384629 -4.611837 -5.063724 11.49287 -9.939425 -0 9.982128 -0 -2.818606 -19.70855 14.67335 -1.655987 0.1923785 2.77976 0.8299138 11.05637 -8.225795 0.957251 21.8913 6.977632 3.248519 -20.72395 7.318537 1.16546 -18.3233 10.86208 91.68372 24.85536 -20.84377 -0 0 12.2073 -19.32903 9.405878 10.12895 6.038925 -23.46282 -5.475683 -86.13224 25.64583 12.92559 0 0 -22.98605 2.454736 9.197994 12.24142
1329.792 104.2745 2557.188 4.056014 -2.637713 56.00105 1.055335 -25.56713 0.3113534 -0 25.2933 -0 -5.181773 1.297202 -5.046843 -5.156666 14.13444 -9.434951 -0 10.60203 -0 -3.403313 -20.82299 13.55763 -1.734955 0.2450712 2.655672 1.211313 10.406 -8.435576 1.210875 21.92273 6.771669 2.924694 -20.55952 7.63894 0.6309623 -17.35566 10.55471 92.25047 24.15747 -22.07074 -0 0 10.68712 -19.17291 9.755291 9.597724 6.446409 -23.98561 -5.48531 -84.36791 24.93519 9.633111 0 0 -25.29299 3.482511 9.46174 10.51672
1334.493 102.9691 2560.415 4.298381 -2.115449 56.53651 0.4695159 -26.64879 -0.9171071 -0 16.45849 -0 -4.699886 -0.09597911 -5.50332 -5.479876 16.4397 -8.502427 -0 12.34713 -0 -3.677489 -21.42016 12.59908 -2.127537 0.1531073 2.557692 1.58283 9.876739 -8.484796 1.399313 22.10529 6.43716 2.517807 -20.28483 7.742172 -0.06884447 -16.40763 10.35665 93.03155 23.03267 -23.11095 -0 0 8.55332 -19.28739 9.800758 9.289352 6.597106 -24.40931 -5.60035 -82.54595 23.71966 6.271276 0 0 -27.36441 4.443343 9.279002 8.565165
1339.551 101.5813 2564.007 4.600422 -1.69023 57.05714 0.3870055 -26.45475 -1.540436 -0 10.21857 -0 -4.446115 -1.110832 -5.991878 -5.737351 18.36018 -7.728676 -0 15.00623 -0 -3.80869 -21.43089 12.13614 -2.492933 -0.1294169 2.467973 1.902275 9.427894 -8.46235 1.52167 22.3485 6.112629 2.18863 -20.14271 7.725757 -0.6375799 -15.58995 10.23517 93.85245 22.20392 -24.06164 -0 0 6.23359 -18.96286 9.623531 8.736405 6.625135 -24.69424 -5.591426 -81.27599 22.80022 3.742895 0 0 -29.0169 5.189783 9.127532 6.906942
1344.87 100.4677 2567.886 4.16009 -1.46264 57.54604 1.452911 -26.13416 -0.7676195 -0 8.05236 -0 -4.662045 -1.927392 -6.32648 -5.536848 19.54258 -7.740954 -0 18.68518 -0 -4.100188 -20.57927 12.25257 -2.390402 -0.5448874 2.364107 2.155072 9.015817 -8.465708 1.607464 22.42234 5.954204 2.102406 -20.47914 7.767378 -0.6184364 -14.97176 10.12322 94.28057 22.67524 -24.84525 -0 0 4.501402 -17.54105 9.462845 7.654201 6.660681 -24.62849 -5.129861 -81.16856 22.88732 3.103105 0 0 -29.57941 5.806923 9.421313 5.911837
1350.271 99.9301 2571.891 2.617392 -1.469186 57.9312 3.6635 -26.06866 1.352159 -0 9.775675 -0 -5.389932 -2.637861 -6.170261 -4.779071 19.39435 -8.625989 -0 23.84153 -0 -4.82409 -18.51026 12.49086 -1.636758 -0.8922899 2.258452 2.367828 8.690577 -8.540565 1.610968 22.14757 6.071796 2.337085 -21.36585 7.919417 0.3090332 -14.57295 10.04504 93.89608 24.96472 -25.22092 -0 0 4.026688 -15.14423 9.545849 6.321588 6.666582 -24.03359 -4.177916 -82.47152 23.91581 4.828322 0 0 -28.42955 6.353853 10.06853 5.653827
1355.616 100.0858 2575.84 0.6235239 -1.637204 58.11444 6.092918 -25.32504 3.685605 -0 13.1686 -0 -6.362532 -3.529249 -5.363372 -3.872728 17.38527 -9.73999 -0 31.05367 -0 -5.977917 -15.25128 12.25419 -0.5561224 -0.9366766 2.281538 2.547571 8.557464 -8.591372 1.453976 21.66352 6.431141 2.80851 -22.38063 8.048519 1.970381 -14.35673 10.10923 92.65091 28.49126 -24.93908 -0 0 4.767816 -12.77319 9.940212 5.361864 6.460663 -23.02168 -3.119656 -84.75648 25.11915 8.207779 0 0 -25.76112 6.645169 10.59761 5.995267
1360.853 100.8545 2579.606 -0.6162353 -1.832469 58.00394 7.507863 -22.66407 4.939067 -0 15.65535 -0 -7.198749 -4.931121 -4.196291 -3.322736 13.38728 -10.31285 -0 40.22514 -0 -7.163774 -11.52352 11.5922 0.2481452 -0.5990125 2.650362 2.615026 8.667943 -8.410175 1.185924 21.37696 6.828636 3.303342 -22.9202 8.00699 3.719064 -14.27568 10.35814 90.94438 31.92819 -23.95385 -0 0 5.976305 -11.49648 10.55315 5.14453 5.973789 -21.97837 -2.382265 -87.05946 25.87057 11.72519 0 0 -22.64491 6.484994 10.73546 6.709757
